HIERARCHY
ROOT hip
{
	OFFSET 0.000000 0.000000 0.000000 
	CHANNELS 6 Xposition Yposition Zposition Xrotation Zrotation Yrotation
	JOINT abdomen
	{
		OFFSET 0.000000 3.402643 0.000000 
		CHANNELS 3 Xrotation Zrotation Yrotation
		JOINT chest
		{
			OFFSET 0.000000 8.438565 -0.680529 
			CHANNELS 3 Xrotation Zrotation Yrotation
			JOINT neck
			{
				OFFSET 0.000000 10.207942 -0.272212 
				CHANNELS 3 Xrotation Zrotation Yrotation
				JOINT head
				{
					OFFSET 0.000000 3.130431 0.000000 
					CHANNELS 3 Xrotation Zrotation Yrotation
					End Site
					{
						OFFSET 0.000000 3.130435 0.000000 
					}
				}
			}
			JOINT lCollar
			{
				OFFSET 3.470700 6.669187 -0.816635 
				CHANNELS 3 Yrotation Zrotation Xrotation
				JOINT lShldr
				{
					OFFSET 3.198488 0.000000 0.000000 
					CHANNELS 3 Zrotation Yrotation Xrotation
					JOINT lForeArm
					{
						OFFSET 10.139888 0.000000 0.000000 
						CHANNELS 3 Yrotation Zrotation Xrotation
						JOINT lHand
						{
							OFFSET 8.370511 0.000000 0.000000 
							CHANNELS 3 Zrotation Yrotation Xrotation
							End Site
							{
								OFFSET 4.083176 0.000000 0.000000 
							}
						}
					}
				}
			}
			JOINT rCollar
			{
				OFFSET -3.470700 6.669187 -0.816635 
				CHANNELS 3 Yrotation Zrotation Xrotation
				JOINT rShldr
				{
					OFFSET -3.198488 0.000000 0.000000 
					CHANNELS 3 Zrotation Yrotation Xrotation
					JOINT rForeArm
					{
						OFFSET -10.139888 0.000000 0.000000 
						CHANNELS 3 Yrotation Zrotation Xrotation
						JOINT rHand
						{
							OFFSET -8.370511 0.000000 0.000000 
							CHANNELS 3 Zrotation Yrotation Xrotation
							End Site
							{
								OFFSET -4.083176 0.000000 0.000000 
							}
						}
					}
				}
			}
		}
	}
	JOINT lThigh
	{
		OFFSET 5.308129 -1.633274 1.361059 
		CHANNELS 3 Xrotation Zrotation Yrotation
		JOINT lShin
		{
			OFFSET -2.041588 -20.007561 0.000000 
			CHANNELS 3 Xrotation Zrotation Yrotation
			JOINT lFoot
			{
				OFFSET 0.000000 -19.190928 -1.224953 
				CHANNELS 3 Xrotation Yrotation Zrotation
				End Site
				{
					OFFSET 0.000000 -2.449906 4.627600 
				}
			}
		}
	}
	JOINT rThigh
	{
		OFFSET -5.308129 -1.633274 1.361059 
		CHANNELS 3 Xrotation Zrotation Yrotation
		JOINT rShin
		{
			OFFSET 2.041588 -20.007561 0.000000 
			CHANNELS 3 Xrotation Zrotation Yrotation
			JOINT rFoot
			{
				OFFSET 0.000000 -19.190928 -1.224953 
				CHANNELS 3 Xrotation Yrotation Zrotation
				End Site
				{
					OFFSET 0.000000 -2.449906 4.627600 
				}
			}
		}
	}
}
MOTION
Frames: 11
Frame Time: 0.016667
-40.363350 21.537207 -6.375283 26.043234 24.109713 -170.373337 51.680893 32.243980 8.881132 0.416857 1.168801 5.772412 -0.080771 -7.689602 -0.444247 27.117519 -0.058025 -7.988287 -0.713973 2.533267 0.123475 -90.000000 -76.614006 45.000000 -14.190382 5.000000 -45.000000 -21.088675 -13.718943 -20.694744 13.136970 -11.641874 0.613776 -69.484970 98.275269 -45.000000 12.187572 -5.000000 -45.000000 2.077776 -12.303399 -6.969183 -98.643532 11.555458 -26.376059 133.381378 9.281887 -8.786697 -19.784430 5.258321 -2.631722 1.128589 -17.231518 -39.995712 144.992767 -9.253369 3.843047 -68.336899 -13.517429 4.998546 
-40.374016 21.529205 -6.372617 26.062790 24.059303 -170.495087 51.750511 32.117760 8.954751 0.386146 1.149321 5.801708 -0.004626 -7.601264 -0.447816 27.134390 -0.038676 -8.066412 -0.841094 2.611309 0.127504 -90.000000 -76.550957 45.000000 -14.094641 5.000000 -45.000000 -21.187525 -13.696239 -20.247063 13.224332 -11.593114 0.611249 -71.002251 98.320000 -45.000000 12.299226 -5.000000 -45.000000 2.064024 -12.362390 -7.139294 -98.586784 11.671993 -26.269598 133.411240 9.304716 -8.822191 -19.899837 5.383433 -2.530047 1.078627 -17.298336 -39.996471 144.993378 -9.253503 3.825010 -68.346336 -13.549982 5.007336 
-40.387081 21.518805 -6.368349 26.060892 24.012032 -170.669281 51.829094 31.979319 9.038211 0.365778 1.129799 5.840763 0.092493 -7.533676 -0.458037 27.127531 0.009668 -8.115234 -1.007305 2.699111 0.132038 -90.000000 -76.466057 45.000000 -14.136881 5.000000 -45.000000 -21.236221 -13.692175 -19.934193 13.350759 -11.544353 0.608723 -72.950470 98.401512 -45.000000 12.526921 -5.000000 -45.000000 2.020384 -12.493279 -7.434827 -98.506363 11.799835 -26.124859 133.434433 9.374141 -8.852571 -20.004730 5.507920 -2.428555 0.984460 -17.390888 -39.994076 144.996475 -9.273764 3.795623 -68.354324 -13.559031 5.063413 
-40.401745 21.506805 -6.363017 26.055008 23.965147 -170.852402 51.904789 31.820080 9.109284 0.336533 1.120004 5.889583 0.189758 -7.485398 -0.465337 27.089912 0.067668 -8.154292 -1.202843 2.796670 0.137074 -90.000000 -76.365280 45.000000 -14.275242 5.000000 -45.000000 -21.256861 -13.711736 -19.720806 13.496719 -11.495593 0.606196 90.000000 81.510857 45.000000 12.836792 -5.000000 -45.000000 1.952374 -12.657587 -7.811377 -98.448868 11.945589 -25.924595 133.478088 9.437833 -8.870980 -20.091908 5.707863 -2.249197 0.883947 -17.494791 -39.992588 144.998032 -9.293592 3.811985 -68.373810 -13.520412 5.085515 
-40.416676 21.494005 -6.356611 26.033741 23.908972 -171.052353 51.998894 31.654276 9.184959 0.316315 1.100470 5.928636 0.277089 -7.417811 -0.475556 27.053633 0.115994 -8.183598 -1.417921 2.894232 0.142111 -90.000000 -76.236176 45.000000 -14.509198 5.000000 -45.000000 -21.229433 -13.753360 -19.598600 13.632915 -11.446832 0.603669 90.000000 81.401924 45.000000 13.202521 -5.000000 -45.000000 1.868837 -12.815967 -8.241940 -98.374214 12.091004 -25.751839 133.501450 9.507325 -8.900985 -20.209492 5.852127 -2.112309 0.748883 -17.603804 -39.996769 144.990479 -9.301734 3.782641 -68.372971 -13.524140 5.108560 
-40.432667 21.478006 -6.345940 25.997915 23.836197 -171.300812 52.123268 31.446621 9.277747 0.314139 1.071254 5.938398 0.323939 -7.329473 -0.479115 27.027082 0.096657 -8.203131 -1.720948 3.011314 0.148155 -90.000000 -76.079163 45.000000 -15.127612 5.000000 -45.000000 -20.966417 -13.899575 -19.869484 13.778673 -11.378568 0.598203 90.000000 81.279465 45.000000 13.796175 -5.000000 -45.000000 1.740596 -12.914986 -8.841573 -98.297333 12.247048 -25.560638 133.511047 9.539583 -8.976071 -20.252445 6.194042 -1.883282 0.572610 -17.729940 -39.997765 144.989075 -9.291663 3.794328 -68.443336 -13.538125 5.089530 
-40.448669 21.462004 -6.335270 25.962845 23.762924 -171.553253 52.227989 31.234787 9.376075 0.312688 1.051776 5.938395 0.370799 -7.241135 -0.481437 27.000534 0.077320 -8.232428 -2.033753 3.128399 0.154198 -90.000000 -75.906670 45.000000 -15.756331 5.000000 -45.000000 -20.709352 -14.050611 -20.148102 13.924438 -11.310303 0.594675 90.000000 81.157471 45.000000 14.399350 -5.000000 -45.000000 1.608761 -13.029192 -9.447606 -98.217789 12.403429 -25.340300 133.565521 9.616499 -8.979765 -20.311033 6.401062 -1.710964 0.415884 -17.866657 -39.991688 144.989365 -9.291737 3.785288 -68.503502 -13.519139 5.089324 
-40.463600 21.440670 -6.317137 25.859825 23.701632 -171.854233 52.390606 31.018816 9.473667 0.292787 1.042011 5.947978 0.419215 -7.192859 -0.488741 26.866631 0.057993 -8.212888 -2.414849 3.216237 0.158732 -90.000000 -75.640198 45.000000 -16.897642 5.000000 -45.000000 -20.155006 -14.263057 -20.909824 14.070614 -11.281048 0.593163 90.000000 80.973633 45.000000 15.286568 -5.000000 -45.000000 1.444929 -13.188157 -10.330690 -98.202957 12.551344 -25.169121 133.575790 9.641117 -9.023908 -20.289896 6.672517 -1.504171 0.116485 -17.997400 -39.997246 144.997406 -9.274032 3.768369 -68.533295 -13.548786 5.084669 
-40.478264 21.418003 -6.297133 -154.256454 156.359802 7.831903 52.549507 30.794231 9.593576 0.282645 1.032246 5.938209 0.457942 -7.154237 -0.494584 26.711809 0.048332 -8.173825 -2.825249 3.304080 0.163265 -90.000000 -75.313110 45.000000 -18.196970 5.000000 -45.000000 -19.519739 -14.465043 -21.810070 14.236321 -11.251790 0.591650 90.000000 80.784081 45.000000 16.264851 -5.000000 -45.000000 1.263512 -13.361614 -11.276166 -98.219124 12.715761 -25.033401 133.597687 9.675972 -9.048097 -20.284536 6.826407 -1.344073 -0.181016 -18.099096 -39.991104 144.997208 -9.264198 3.742480 -68.602882 -13.575298 5.089497 
-40.492397 21.392139 -6.273400 -154.388794 156.411270 7.496239 52.759090 30.571131 9.711303 0.261477 1.012783 5.928444 0.477221 -7.125271 -0.498966 26.524817 -0.009668 -8.115237 -3.284428 3.372427 0.166793 -90.000000 -74.893768 45.000000 -19.831015 5.000000 -45.000000 -18.754827 -14.650905 -22.907093 14.363070 -11.232285 0.590642 88.733322 80.558304 45.000000 17.444128 -5.000000 -45.000000 1.068096 -13.551752 -12.290921 -98.253098 12.863295 -24.858072 133.630127 9.712932 -9.042991 -20.249874 7.044839 -1.159589 -0.500197 -18.230093 -39.993076 144.996002 -9.244467 3.717025 -68.662117 -13.584350 5.104763 
-40.505722 21.361473 -6.244065 -154.539963 156.472244 7.142667 53.040024 30.332857 9.890334 0.228263 0.973904 5.879622 0.436785 -7.104520 -0.492303 26.264965 -0.106374 -8.007836 -3.811886 3.411526 0.168812 -87.649033 -74.305679 45.000000 -21.978241 5.000000 -45.000000 -17.764956 -14.801795 -24.330492 14.460523 -11.212781 0.589633 85.853310 80.321922 45.000000 18.916903 -5.000000 -45.000000 0.838316 -13.756199 -13.370219 -98.338570 13.017442 -24.714809 133.650558 9.715225 -9.037663 -20.148048 7.203420 -1.014460 -0.889669 -18.377743 -39.997189 144.994415 -9.224552 3.701306 -68.702171 -13.563523 5.099166 
